<?xml version="1.0" encoding="iso-8859-1"?>
<!-- Uploaded to: SVG Repo, www.svgrepo.com, Generator: SVG Repo Mixer Tools -->
<!DOCTYPE svg PUBLIC "-//W3C//DTD SVG 1.1//EN" "http://www.w3.org/Graphics/SVG/1.1/DTD/svg11.dtd">
<svg fill="#000000" height="800px" width="800px" version="1.1" id="Capa_1" xmlns="http://www.w3.org/2000/svg" xmlns:xlink="http://www.w3.org/1999/xlink" 
	 viewBox="0 0 433.64 433.64" xml:space="preserve">
<path d="M229.489,67.228c3.671,3.991,5.716,9.343,5.626,14.767c4.043,3.686,6.538,8.906,6.896,14.363
	c0.238,3.644-1.143,5.279,0.842,8.166c2.995,4.358,4.605,9.35,4.123,14.674c-0.169,1.865-2.036,6.123-1.174,7.831
	c4.191,8.304,4.582,15.111,1.301,23.821c-0.66,1.754,1.64,5.723,2.015,7.516c1.062,5.081,0.141,10.152-2.221,14.724
	c-2.173,4.207-0.972,8.754-0.777,13.456c7.412-11.921,14.815-23.848,22.098-35.847c20.195-31.695,37.778-65.124,58.681-96.362
	c-9.064,35.732-24.987,69.709-44.034,101.162c-12.579,20.773-26.688,41.655-42.825,60.518c-1.248,2.725-3.055,5.079-4.955,7.472
	c-1.087,1.369-0.084,5.786-0.228,7.475c-0.679,7.991-8.341,12.05-8.521,19.167c-0.104,4.14-1.208,8.109-3.396,11.563l0.248,2.546
	c-2.49,2.945-4.942,5.925-7.373,8.923c-8.328,10.271-16.282,20.848-23.658,31.778c-0.066-4.15-0.229-8.288-0.496-12.405
	c0.49-3.165,0.701-6.432,3.406-8.565c5.816-4.585,9.957-7.693,10.737-15.538c0.745-7.505,7.348-8.224,9.432-15.126
	c1.866-6.182-0.665-9.503,4.01-14.504c2.905-3.108,5.255-6.009,5.011-10.606c-0.113-2.119-1.048-5.662-0.408-7.665
	c2.102-6.585,8.232-7.459,7.035-16.05c-0.375-2.692-1.541-5.5-0.017-7.83c1.638-2.501,3.903-5.186,4.821-8.082
	c1.906-6.006-3.09-10.974-0.219-16.533c3.949-7.647,3.02-12.395,0.217-20.215c-1.866-5.207,5.578-10.174,2.084-17.097
	c-3.577-7.089-2.403-7.492-1.623-15.03c1.827-7.784-6.659-11.109-5.28-18.11c1.816-9.217-6.708-11.266-6.421-18.818
	c0.34-8.922-8.534-9.229-9.509-16.522c-1.182-8.841-10.008-7.664-12.231-14.665c-2.571-8.095-10.946-5.419-13.744-10.895
	c-2.322-4.546-5.279-7.604-10.702-7.879c-3.78-0.191-3.88-0.243-6.079-3.323c-4.845-6.783-11.989-1.89-16.048-6.237
	c-3.403-3.645-7.072-5.76-12.229-4.643c-4.529,0.982-6.175-1.048-10.545-2.649c-4.5-1.649-9.939-1.871-13.674-5.181
	c-3.312-2.935-4.443-5.368-9.491-5.368c-6.698,0-9.092,4.856-10.746,10.333c-1.476,4.89-6.35,7.841-9.52,11.533
	c-3.033,3.533-3.477,6.108-7.911,7.461c-4.255,1.298-6.973,4.198-8.034,8.511c-1.718,6.971-10.377,6.122-11.336,14.778
	c-0.799,7.208-9.574,7.572-9.242,16.382c0.175,4.649-0.67,3.536-3.336,6.933c-3.854,3.359-3.898,7.854-2.961,12.438
	c0.677,3.306-0.957,3.083-2.475,5.899c-3.232,3.979-2.506,8.43-0.78,12.793c1.241,3.137-0.403,3.198-1.411,6.232
	c-2.482,4.458-1.021,8.706,1.415,12.696c1.747,2.862,0.142,3.188-0.353,6.327c-1.625,4.538,0.2,8.461,3.104,11.874
	c4.703,5.532-1.053,12.609,4.538,18.721c4.839,5.29,5.304,6.415,5.608,13.577c0.344,8.096,9.309,8.784,10.356,15.063
	c1.296,7.763,3.146,11.936,9.861,16.381c5.908,3.91,3.177,12.532,10.231,16.208c5.716,3.967,6.984,3.145,9.604,9.872
	c1.569,4.029,3.942,6.451,7.942,8.097c1.463,0.602,5.504,1.418,6.227,2.884c3.19,6.486,5.415,10.958,12.737,13.297
	c7.182,2.295,6.529,8.906,12.849,12.374c5.66,3.106,9.429,1.314,13.345,6.929c5.377,7.712,10.542,4.786,17.425,8.396
	c5.149,2.701,7.035,8.96,12.433,10.067c-0.409,2.753-5.884,49.439-36.079,95.591c-6.028,9.214-17.267,18.378-7.905,29.752
	c22.449,27.275,43.015-35.042,46.729-47.888c3.135-10.844,5.498-22.043,7.111-33.388c9.318-26.728,22.618-52.19,37.672-76.432
	c0.396,0.092,0.803,0.14,1.211,0.14c0.877,0,1.761-0.216,2.567-0.663c0.187-0.104,0.367-0.218,0.539-0.342l9.409-6.706l10.402,0.153
	c1.467-0.009,2.837-0.546,3.855-1.573l7.13-7.19l10.105-0.623c1.439-0.089,2.78-0.757,3.717-1.854l6.58-7.7l10.037-1.381
	c1.432-0.197,2.723-0.969,3.574-2.137l5.97-8.195l9.901-2.194c1.419-0.315,2.647-1.197,3.4-2.441l5.254-8.689l9.677-3.088
	c1.396-0.445,2.546-1.446,3.179-2.767l4.399-9.172l9.325-4.074c1.353-0.591,2.399-1.718,2.888-3.112l3.378-9.615l8.804-5.138
	c1.287-0.751,2.2-2.006,2.518-3.461l2.175-9.977l8.086-6.243c1.186-0.916,1.932-2.291,2.052-3.786l0.79-9.878l5.741-4.777
	c1.462-1.216,2.163-3.12,1.84-4.994l-1.219-7.061l4.724-5.386c1.265-1.441,1.655-3.452,1.022-5.262l-2.369-6.779l3.748-6.122
	c1.004-1.641,1.043-3.695,0.104-5.374l-3.509-6.27l2.63-6.682c0.701-1.784,0.389-3.808-0.818-5.297l-4.511-5.564l1.493-7.004
	c0.397-1.861-0.232-3.793-1.648-5.065l-5.304-4.769l0.44-7.112c0.117-1.883-0.772-3.686-2.336-4.74l-5.894-3.972l-0.489-7.088
	c-0.129-1.869-1.231-3.532-2.903-4.379l-5.99-3.035c-0.606-3.028-2.333-7.407-6.758-12.972c-4.882-6.136-4.758-11.043-4.721-11.653
	c0.272-1.681-0.316-3.186-1.524-4.395c-1.065-1.064-2.459-1.707-3.958-1.635c-1.485,0.075-2.801,0.686-3.75,1.826
	c-0.436,0.428-4.055,3.743-11.889,4.094c-7.103,0.315-11.54,1.887-14.223,3.417l-6.221-2.526c-1.737-0.706-3.715-0.444-5.209,0.686
	l-5.666,4.284l-6.866-1.837c-1.817-0.486-3.765,0.026-5.109,1.35l-5.077,5.004l-7.079-0.87c-1.888-0.236-3.758,0.562-4.9,2.083
	l-4.302,5.724l-7.155,0.25c-1.916,0.067-3.648,1.16-4.533,2.86l-3.316,6.372l-7.033,1.469c-1.883,0.394-3.407,1.773-3.985,3.608
	l-2.158,6.846l-6.667,2.666c-1.78,0.711-3.04,2.326-3.297,4.226l-0.96,7.1l-2.231,1.354c0.121,0.35,0.256,0.695,0.358,1.05
	C225.758,64.571,227.053,64.578,229.489,67.228z M143.277,154.534c-6.91-31.294-13.822-62.866-16.379-94.877
	c14.791,28.536,23.523,60.375,30.986,91.485c7.002,31.362,12.771,63.503,12.627,95.753
	C158.148,217.373,150.656,185.595,143.277,154.534z"/>
</svg>